<svg width="24" height="24" viewBox="0 0 24 24" fill="none" xmlns="http://www.w3.org/2000/svg">
<path fill-rule="evenodd" clip-rule="evenodd" d="M12.0001 2C11.356 2 10.7383 2.25587 10.2828 2.71131C9.8274 3.16676 9.57153 3.78447 9.57153 4.42857C9.57153 5.07267 9.8274 5.69039 10.2828 6.14583C10.5292 6.39218 10.823 6.58014 11.1428 6.7008V9.57104H8.10799C8.01025 9.28349 7.84738 9.0192 7.62857 8.80039C7.2535 8.42531 6.74479 8.2146 6.21436 8.2146C5.68392 8.2146 5.17521 8.42531 4.80014 8.80039C4.42507 9.17546 4.21436 9.68417 4.21436 10.2146C4.21436 10.745 4.42507 11.2537 4.80014 11.6288C5.17521 12.0039 5.68392 12.2146 6.21436 12.2146C6.74479 12.2146 7.2535 12.0039 7.62857 11.6288C7.73343 11.5239 7.82545 11.4086 7.9036 11.2853H11.1428V14.7139H4.89385C4.79614 14.4261 4.63319 14.1616 4.41421 13.9426C4.03914 13.5675 3.53043 13.3568 3 13.3568C2.46957 13.3568 1.96086 13.5675 1.58579 13.9426C1.21071 14.3177 1 14.8264 1 15.3568C1 15.8872 1.21071 16.396 1.58579 16.771C1.96086 17.1461 2.46957 17.3568 3 17.3568C3.53043 17.3568 4.03914 17.1461 4.41421 16.771C4.51889 16.6663 4.61077 16.5513 4.68884 16.4282H11.1428V19.8568H8.10799C8.01025 19.5692 7.84738 19.3049 7.62857 19.0861C7.2535 18.711 6.74479 18.5003 6.21436 18.5003C5.68392 18.5003 5.17521 18.711 4.80014 19.0861C4.42507 19.4612 4.21436 19.9699 4.21436 20.5003C4.21436 21.0307 4.42507 21.5395 4.80014 21.9145C5.17521 22.2896 5.68392 22.5003 6.21436 22.5003C6.74479 22.5003 7.2535 22.2896 7.62857 21.9145C7.73343 21.8097 7.82545 21.6944 7.90361 21.571H16.0965C16.1747 21.6944 16.2667 21.8097 16.3716 21.9145C16.7466 22.2896 17.2553 22.5003 17.7858 22.5003C18.3162 22.5003 18.8249 22.2896 19.2 21.9145C19.5751 21.5395 19.7858 21.0307 19.7858 20.5003C19.7858 19.9699 19.5751 19.4612 19.2 19.0861C18.8249 18.711 18.3162 18.5003 17.7858 18.5003C17.2553 18.5003 16.7466 18.711 16.3716 19.0861C16.1528 19.3049 15.9899 19.5692 15.8922 19.8568H12.8571V16.4282H19.3112C19.3892 16.5513 19.4811 16.6663 19.5858 16.771C19.9609 17.1461 20.4696 17.3568 21 17.3568C21.5304 17.3568 22.0391 17.1461 22.4142 16.771C22.7893 16.396 23 15.8872 23 15.3568C23 14.8264 22.7893 14.3177 22.4142 13.9426C22.0391 13.5675 21.5304 13.3568 21 13.3568C20.4696 13.3568 19.9609 13.5675 19.5858 13.9426C19.3668 14.1616 19.2039 14.4261 19.1061 14.7139H12.8571V11.2853H16.0965C16.1747 11.4086 16.2667 11.5239 16.3716 11.6288C16.7466 12.0039 17.2554 12.2146 17.7858 12.2146C18.3162 12.2146 18.8249 12.0039 19.2 11.6288C19.5751 11.2537 19.7858 10.745 19.7858 10.2146C19.7858 9.68417 19.5751 9.17546 19.2 8.80039C18.8249 8.42531 18.3162 8.2146 17.7858 8.2146C17.2554 8.2146 16.7466 8.42531 16.3716 8.80039C16.1528 9.0192 15.9899 9.28349 15.8922 9.57104H12.8571V6.70091C13.177 6.58025 13.4709 6.39225 13.7174 6.14583C14.1728 5.69039 14.4287 5.07267 14.4287 4.42857C14.4287 3.78447 14.1728 3.16676 13.7174 2.71131C13.2619 2.25587 12.6442 2 12.0001 2Z" fill="black"/>
</svg>
